<?xml version="1.0" encoding="UTF-8"?>
<svg version="1.1" xmlns="http://www.w3.org/2000/svg" width="1050" height="600">
<path d="M0 0 C8.28941969 7.3949929 14.17061019 18.79699389 15.28515625 29.8203125 C15.89162504 42.72721246 11.37599569 54.24257705 3 64 C-4.84969668 72.49967157 -15.68342448 77.32930843 -27.1484375 78.25390625 C-39.54109045 78.67793742 -51.09168814 75.66332808 -61 68 C-65.45917051 63.75816721 -68.9409401 59.85802542 -71 54 C-71.99 54.495 -71.99 54.495 -73 55 C-75.57542236 55.1238635 -78.12262293 55.1879809 -80.69921875 55.203125 C-81.47794846 55.21013931 -82.25667816 55.21715363 -83.05900574 55.22438049 C-85.60189486 55.24201613 -88.14455173 55.24824518 -90.6875 55.25 C-91.98195038 55.25101212 -91.98195038 55.25101212 -93.30255127 55.25204468 C-139.50757552 55.19449681 -139.50757552 55.19449681 -151.890625 45.5234375 C-153 44 -153 44 -153.5 41.125 C-152.82311611 36.89447568 -151.25618425 35.73727043 -148 33 C-145.42430571 31.90822159 -143.10215028 31.06169153 -140.4375 30.3125 C-139.79748047 30.11333984 -139.15746094 29.91417969 -138.49804688 29.70898438 C-127.61154546 26.46958639 -116.83630871 25.69583688 -105.54492188 25.79418945 C-103.37097455 25.81253397 -101.19745459 25.81469762 -99.0234375 25.81445312 C-91.63751992 25.83369221 -84.33387172 26.03466608 -77 27 C-76.58041016 25.65808594 -76.58041016 25.65808594 -76.15234375 24.2890625 C-71.58157895 10.50328313 -65.17522312 0.60288042 -52.0625 -6.25 C-34.31809692 -14.62869218 -15.53821514 -12.14624522 0 0 Z M-149 41 C-144.39179564 44.33927852 -139.66342365 45.11765569 -134.1875 46.125 C-133.32318359 46.29386719 -132.45886719 46.46273437 -131.56835938 46.63671875 C-123.62243231 48.15993798 -115.89624718 49.15612237 -107.80859375 49.1328125 C-107.05965347 49.13376923 -106.3107132 49.13472595 -105.53907776 49.13571167 C-103.96851517 49.13638708 -102.39794968 49.1345778 -100.82739258 49.13037109 C-98.44020255 49.12500607 -96.05319997 49.13034181 -93.66601562 49.13671875 C-92.13020792 49.136058 -90.59440034 49.13477691 -89.05859375 49.1328125 C-88.35423691 49.13483673 -87.64988007 49.13686096 -86.92417908 49.13894653 C-82.50741756 49.11830176 -78.34488553 48.71299596 -74 48 C-74.309375 46.88625 -74.61875 45.7725 -74.9375 44.625 C-76.15800664 39.79490988 -76.61399637 34.95709931 -77 30 C-98.20602949 26.71497192 -133.13416306 23.6865502 -149 41 Z " fill="#FA8E6A" transform="translate(605,196)"/>
<path d="M0 0 C4.62 0 9.24 0 14 0 C14.33 0.66 14.66 1.32 15 2 C13.68 2.33 12.36 2.66 11 3 C10.67 7.95 10.34 12.9 10 18 C17.26 18 24.52 18 32 18 C31.8968185 11.44070741 31.8968185 11.44070741 31 5 C28.15899225 2.53025527 28.15899225 2.53025527 25 2 C25.33 1.34 25.66 0.68 26 0 C31.28 0 36.56 0 42 0 C42.495 0.99 42.495 0.99 43 2 C41.02 2.99 41.02 2.99 39 4 C39 14.56 39 25.12 39 36 C44.11809703 38.04723881 45.81726228 38.01622308 51 37 C51.12361526 32.49774209 51.21434063 27.99647151 51.2746582 23.49291992 C51.29980078 21.96116939 51.33392047 20.42953883 51.37719727 18.89819336 C51.43786942 16.69615116 51.46620891 14.49569426 51.48828125 12.29296875 C51.51408768 11.60849167 51.5398941 10.92401459 51.56648254 10.21879578 C51.62314137 8.04231047 51.62314137 8.04231047 51 5 C48.5710297 3.12501771 48.5710297 3.12501771 46 2 C46 1.34 46 0.68 46 0 C49.96930989 -0.02465881 53.93859034 -0.04284023 57.90795898 -0.05493164 C59.25920386 -0.05997057 60.61044326 -0.06680177 61.96166992 -0.07543945 C63.90020434 -0.08752419 65.838778 -0.09269828 67.77734375 -0.09765625 C69.52905884 -0.10551147 69.52905884 -0.10551147 71.31616211 -0.11352539 C74 0 74 0 75 1 C75.07205511 2.68608966 75.08386068 4.37500659 75.0625 6.0625 C75.05347656 6.98160156 75.04445313 7.90070313 75.03515625 8.84765625 C75.02355469 9.55792969 75.01195312 10.26820313 75 11 C74.34 11 73.68 11 73 11 C72.5978125 9.5459375 72.5978125 9.5459375 72.1875 8.0625 C70.34716211 4.77428185 70.34716211 4.77428185 67.3515625 4.37890625 C64.57451997 4.14689113 61.78594674 4.06555169 59 4 C59 8.62 59 13.24 59 18 C60.60875 17.9175 62.2175 17.835 63.875 17.75 C64.77992188 17.70359375 65.68484375 17.6571875 66.6171875 17.609375 C69.17110544 17.24388852 69.17110544 17.24388852 70.3203125 14.953125 C70.54460937 14.30859375 70.76890625 13.6640625 71 13 C71.66 13 72.32 13 73 13 C73 17.62 73 22.24 73 27 C72.34 27 71.68 27 71 27 C70.67 25.35 70.34 23.7 70 22 C66.37 21.67 62.74 21.34 59 21 C59 26.28 59 31.56 59 37 C65.55929259 36.8968185 65.55929259 36.8968185 72 36 C74.46974473 33.15899225 74.46974473 33.15899225 75 30 C76.485 30.495 76.485 30.495 78 31 C77.67 33.97 77.34 36.94 77 40 C59.51 40 42.02 40 24 40 C25 38 25 38 31 36 C31.33 31.38 31.66 26.76 32 22 C24.74 22 17.48 22 10 22 C10.33 27.28 10.66 32.56 11 38 C12.65 38.33 14.3 38.66 16 39 C16 39.33 16 39.66 16 40 C10.39 40 4.78 40 -1 40 C-1 39.34 -1 38.68 -1 38 C0.32 38 1.64 38 3 38 C3.07405295 33.19453321 3.12855497 28.3893971 3.16479492 23.58349609 C3.17989911 21.94802059 3.20038389 20.31258571 3.22631836 18.67724609 C3.26263145 16.32899976 3.27970932 13.98128795 3.29296875 11.6328125 C3.30845261 10.89942657 3.32393646 10.16604065 3.33988953 9.41043091 C3.37554636 7.1291908 3.37554636 7.1291908 3 4 C2.01 3.34 1.02 2.68 0 2 C0 1.34 0 0.68 0 0 Z " fill="#FFF9E5" transform="translate(294,368)"/>
<path d="M0 0 C2.11942335 0.00315499 4.23743769 -0.02038129 6.35668945 -0.0456543 C15.86374046 -0.08737907 24.56490177 1.0994815 33.81958008 3.31567383 C33.81958008 3.64567383 33.81958008 3.97567383 33.81958008 4.31567383 C29.01390727 4.39445535 24.35091534 4.3141684 19.56958008 3.81567383 C1.29660196 2.1135334 -21.66730641 2.47025794 -38.18041992 11.31567383 C-40.48402063 13.35666847 -40.48402063 13.35666847 -42.18041992 15.31567383 C-30.04078334 20.62676483 -15.44583699 22.46199269 -2.27026367 22.48364258 C-1.54029678 22.48697098 -0.8103299 22.49029938 -0.0582428 22.49372864 C1.47874327 22.49875726 3.01574009 22.50113823 4.55273438 22.50097656 C6.85216283 22.50314561 9.15109662 22.52129667 11.45043945 22.5402832 C19.99075405 22.57173227 28.19644824 22.07850038 36.63793945 20.75878906 C40.75445507 20.18547139 44.671925 20.17014207 48.81958008 20.31567383 C48.81958008 21.30567383 48.81958008 22.29567383 48.81958008 23.31567383 C40.28091436 31.3595062 25.40667962 29.7965069 14.50708008 29.69067383 C13.66908875 29.68635345 12.83109741 29.68203308 11.9677124 29.67758179 C-33.82793903 29.40087585 -33.82793903 29.40087585 -46.07104492 19.83911133 C-47.18041992 18.31567383 -47.18041992 18.31567383 -47.68041992 15.44067383 C-47.00353603 11.21014951 -45.43660417 10.05294426 -42.18041992 7.31567383 C-39.60472563 6.22389542 -37.28257021 5.37736536 -34.61791992 4.62817383 C-33.97790039 4.42901367 -33.33788086 4.22985352 -32.6784668 4.0246582 C-21.91319334 0.82133293 -11.17198622 -0.03461201 0 0 Z " fill="#FEEFD8" transform="translate(499.180419921875,221.684326171875)"/>
<path d="M0 0 C3.98919887 -1.099065 7.00829671 -1.14912671 11 0 C15.83746089 3.64598765 19.64937447 8.51834495 23.48486328 13.16650391 C25.32630658 15.39486987 27.25275194 17.54005237 29.1875 19.6875 C31.25856011 22.06457427 33.09667641 24.46223521 35 27 C35 19.41 35 11.82 35 4 C33.35 3.34 31.7 2.68 30 2 C30.33 1.34 30.66 0.68 31 0 C35.95 0 40.9 0 46 0 C45.67 0.99 45.34 1.98 45 3 C43.68 3.33 42.36 3.66 41 4 C41 16.21 41 28.42 41 41 C36.37564438 39.8439111 34.67959392 37.87440677 31.6875 34.4375 C31.20039551 33.89174316 30.71329102 33.34598633 30.21142578 32.78369141 C28.79867672 31.19674856 27.39765886 29.60023325 26 28 C25.35417969 27.26652344 24.70835937 26.53304688 24.04296875 25.77734375 C22.94843138 24.52900722 21.85716731 23.27779149 20.76953125 22.0234375 C17.22746108 17.97312327 13.60591002 13.99341501 10 10 C9.97107615 14.12498538 9.95322733 18.24994485 9.9375 22.375 C9.92912109 23.550625 9.92074219 24.72625 9.91210938 25.9375 C9.90888672 27.05898438 9.90566406 28.18046875 9.90234375 29.3359375 C9.89710693 30.37282715 9.89187012 31.4097168 9.88647461 32.47802734 C9.82859185 34.9959668 9.82859185 34.9959668 11 37 C12.64363134 37.72159424 14.31050386 38.39351421 16 39 C16 39.33 16 39.66 16 40 C10.72 40 5.44 40 0 40 C0 39.34 0 38.68 0 38 C1.32 38 2.64 38 4 38 C4 26.78 4 15.56 4 4 C2.68 3.67 1.36 3.34 0 3 C0 2.01 0 1.02 0 0 Z " fill="#FFF9E5" transform="translate(707,368)"/>
<path d="M0 0 C0 3 0 3 -1.4375 4.5 C-1.953125 4.995 -2.46875 5.49 -3 6 C-4.76286862 11.28860587 -4.91120123 16.14114948 -2.4375 21.1875 C7.21530601 32.32535309 19.67171796 36.66140098 34 39 C34.80050781 39.13148438 35.60101563 39.26296875 36.42578125 39.3984375 C38.62128959 39.69545325 40.78803846 39.87543561 43 40 C43.87914062 40.05285156 44.75828125 40.10570312 45.6640625 40.16015625 C69.07900076 40.85594899 90.01053204 34.84327808 109.65625 22.3046875 C112.58505049 20.67432189 114.70062986 20.76981139 118 21 C117.92320707 23.61095954 117.47714728 25.42215606 115.796875 27.45703125 C99.90103547 42.07966033 72.78357305 46.72112272 51.8515625 46.18359375 C32.95286664 44.9668284 10.15540207 40.95794514 -3 26 C-6.70198338 20.77305188 -7.71508139 16.33357803 -7 10 C-5.37607291 5.77778957 -3.3578219 3.01046101 0 0 Z " fill="#FFEFD8" transform="translate(455,278)"/>
<path d="M0 0 C3.79151583 -0.08829061 7.58276165 -0.14081946 11.375 -0.1875 C12.96634766 -0.22520508 12.96634766 -0.22520508 14.58984375 -0.26367188 C22.37610117 -0.33532455 30.12781734 -0.03412733 36.47265625 4.9375 C36.99730469 5.618125 37.52195312 6.29875 38.0625 7 C38.61035156 7.680625 39.15820312 8.36125 39.72265625 9.0625 C43.04779592 14.10613693 42.65408453 20.20143042 42 26 C39.67811736 31.98294241 35.52844044 36.28628483 29.75708008 39.08935547 C26.49125394 40.16803531 23.8237093 40.22670054 20.38671875 40.1953125 C19.13955078 40.18886719 17.89238281 40.18242187 16.60742188 40.17578125 C14.66706055 40.15064453 14.66706055 40.15064453 12.6875 40.125 C11.37458984 40.11597656 10.06167969 40.10695313 8.70898438 40.09765625 C5.47247087 40.07411797 2.23632851 40.0412352 -1 40 C-1 39.34 -1 38.68 -1 38 C1.475 37.505 1.475 37.505 4 37 C4 26.11 4 15.22 4 4 C2.35 3.67 0.7 3.34 -1 3 C-0.67 2.01 -0.34 1.02 0 0 Z M12 2 C12 13.88 12 25.76 12 38 C22.55476709 38.61454126 22.55476709 38.61454126 30.43359375 33.5703125 C35.0752517 28.28434508 35.40521947 23.87839731 35.34765625 17.0859375 C34.82790364 12.47240308 33.11713729 9.38967388 30 6 C24.16843744 1.59076977 19.45123587 2 12 2 Z " fill="#FFF8E4" transform="translate(755,368)"/>
<path d="M0 0 C5.1466477 3.67768665 8.4446277 8.63766428 9.625 14.875 C10.04866687 21.6404304 7.58523421 27.13504982 3.375 32.3125 C-1.38409853 37.28972387 -5.90882871 39.06057291 -12.75 39.375 C-18.93616858 39.17955786 -24.28485075 37.69521265 -28.97265625 33.51171875 C-33.82210631 28.0401818 -34.84006337 22.80731797 -34.6875 15.72265625 C-34.0382564 9.93627268 -31.65264416 6.27456947 -27.6875 2.125 C-19.12162136 -3.53171231 -9.32053718 -5.17807621 0 0 Z M-24.70703125 5.6328125 C-27.70464356 10.86539371 -28.39109531 16.01919045 -27.375 21.9375 C-25.72686679 27.01316686 -23.64424755 31.57805894 -19.0625 34.5625 C-14.53895447 36.24924579 -12.1686262 36.54621444 -7.375 35.9375 C-2.36590248 33.48020688 -0.4858222 31.01798897 1.625 25.9375 C2.50454117 19.61946258 2.79790109 12.99313822 -0.4375 7.3125 C-3.84728817 2.82390879 -7.74400037 0.37599994 -13.375 -0.5625 C-18.13129283 0.23021547 -21.72827241 1.84166488 -24.70703125 5.6328125 Z " fill="#FFF9E3" transform="translate(459.375,370.0625)"/>
<path d="M0 0 C0.95519531 -0.020625 1.91039062 -0.04125 2.89453125 -0.0625 C11.69738332 -0.11147275 11.69738332 -0.11147275 15.75 3.25 C16.32878906 3.71664063 16.90757812 4.18328125 17.50390625 4.6640625 C19.90788104 7.72366678 19.98832102 11.4699638 19.75 15.25 C17.9375 18.3125 17.9375 18.3125 15.75 20.25 C15.09 20.25 14.43 20.25 13.75 20.25 C14.31589844 21.22582031 14.88179687 22.20164062 15.46484375 23.20703125 C16.20587182 24.49210525 16.94674939 25.77726604 17.6875 27.0625 C18.24727539 28.02639648 18.24727539 28.02639648 18.81835938 29.00976562 C20.38466635 31.73316424 21.75369374 34.26108122 22.75 37.25 C25.25447516 38.46869929 25.25447516 38.46869929 27.75 39.25 C27.75 39.91 27.75 40.57 27.75 41.25 C23.88680856 41.31009409 20.22524177 41.34054154 17.02734375 38.9765625 C13.41653443 34.87468312 10.90126426 30.14326469 8.4375 25.2890625 C6.5387654 22.54150031 6.5387654 22.54150031 0.75 22.25 C1.08 26.87 1.41 31.49 1.75 36.25 C3.73 36.91 5.71 37.57 7.75 38.25 C7.75 38.91 7.75 39.57 7.75 40.25 C1.48 40.25 -4.79 40.25 -11.25 40.25 C-11.25 39.59 -11.25 38.93 -11.25 38.25 C-9.6 37.59 -7.95 36.93 -6.25 36.25 C-6.12618474 31.9084654 -6.03556442 27.56787163 -5.9753418 23.22509766 C-5.95023263 21.74867854 -5.91613745 20.27238332 -5.87280273 18.79638672 C-5.811982 16.6712386 -5.78375791 14.54773606 -5.76171875 12.421875 C-5.73553467 11.1440918 -5.70935059 9.86630859 -5.68237305 8.54980469 C-5.94842134 5.05968523 -5.94842134 5.05968523 -8.78051758 2.80175781 C-9.59544678 2.28967773 -10.41037598 1.77759766 -11.25 1.25 C-8.90212094 -1.09787906 -3.1506075 0.01673629 0 0 Z M1.75 2.25 C0.30611429 3.46428988 0.30611429 3.46428988 0.65234375 7.06640625 C0.65901911 8.64846682 0.67098125 10.23051159 0.6875 11.8125 C0.69201172 12.61880859 0.69652344 13.42511719 0.70117188 14.25585938 C0.71299482 16.25393756 0.73093086 18.25197783 0.75 20.25 C2.0184375 20.2809375 3.286875 20.311875 4.59375 20.34375 C5.30724609 20.36115234 6.02074219 20.37855469 6.75585938 20.39648438 C8.94884549 20.38585891 8.94884549 20.38585891 11.25 18.75 C13.34230987 15.26281688 13.50167603 12.15561567 12.75 8.25 C11.360911 5.20086064 11.360911 5.20086064 8.75 3.25 C5.15614946 2.27126462 5.15614946 2.27126462 1.75 2.25 Z " fill="#FFF8E4" transform="translate(659.25,367.75)"/>
<path d="M0 0 C0 3.3 0 6.6 0 10 C-0.66 10 -1.32 10 -2 10 C-2.5775 8.88625 -3.155 7.7725 -3.75 6.625 C-5.35581061 3.52807953 -6.68521131 2.18774878 -10 1 C-14.38740632 0.76453991 -18.05346262 1.46500061 -21.875 3.625 C-26.4870916 8.77969062 -27.56547738 13.73984179 -27.359375 20.5 C-26.58992338 25.85270695 -24.0938227 30.46301968 -20 34 C-16.85069107 35.04976964 -14.61185544 35.10131595 -11.3125 35.0625 C-9.559375 35.041875 -7.80625 35.02125 -6 35 C-6.33 31.37 -6.66 27.74 -7 24 C-8.98 23.34 -10.96 22.68 -13 22 C-13 21.67 -13 21.34 -13 21 C-6.73 21 -0.46 21 6 21 C5.67 21.66 5.34 22.32 5 23 C4.01 23.33 3.02 23.66 2 24 C1.67 27.96 1.34 31.92 1 36 C-7.28509845 39.37020954 -15.73567289 40.62715565 -24.4375 37.9375 C-28.93363392 34.53798411 -32.90784008 30.30204911 -35 25 C-35.89602797 17.8695037 -35.91153147 11.53169724 -31.48046875 5.6484375 C-22.45552056 -4.4004494 -12.31512128 -4.10504043 0 0 Z " fill="#FFF8E4" transform="translate(641,370)"/>
<path d="M0 0 C2.31 0 4.62 0 7 0 C7.37286133 1.08007324 7.74572266 2.16014648 8.12988281 3.27294922 C9.51667176 7.27754084 10.92262217 11.27517851 12.33447266 15.27099609 C12.94291874 17.00157901 13.54614743 18.73400546 14.14404297 20.46826172 C15.00424964 22.96043595 15.88298587 25.44538357 16.765625 27.9296875 C17.02933899 28.70682098 17.29305298 29.48395447 17.5647583 30.28463745 C19.04226232 34.50343288 19.04226232 34.50343288 22.20214844 37.50439453 C22.79543945 37.66794434 23.38873047 37.83149414 24 38 C24 38.66 24 39.32 24 40 C18.06 40 12.12 40 6 40 C6 39.34 6 38.68 6 38 C7.98 38 9.96 38 12 38 C10.68 33.38 9.36 28.76 8 24 C4.7 24 1.4 24 -2 24 C-2.67057887 25.7902061 -3.3363469 27.58221489 -4 29.375 C-4.37125 30.37273437 -4.7425 31.37046875 -5.125 32.3984375 C-6.10626277 34.85848061 -6.10626277 34.85848061 -6 37 C-4.35 37.33 -2.7 37.66 -1 38 C-1 38.66 -1 39.32 -1 40 C-5.95 40 -10.9 40 -16 40 C-16 39.34 -16 38.68 -16 38 C-15.1032959 37.75467529 -15.1032959 37.75467529 -14.18847656 37.50439453 C-10.79596332 35.17232552 -10.1582021 31.70168367 -8.984375 27.9296875 C-8.72368225 27.13345978 -8.4629895 26.33723206 -8.19439697 25.51687622 C-7.36540063 22.97393289 -6.5575343 20.42483037 -5.75 17.875 C-5.19148307 16.1492927 -4.63160342 14.4240258 -4.0703125 12.69921875 C-2.69767972 8.47109274 -1.34395791 4.23732356 0 0 Z M2 9 C1.01 12.3 0.02 15.6 -1 19 C1.31 19 3.62 19 6 19 C5.47535095 14.38308839 4.92509086 12.90012114 2 9 Z " fill="#FFF8E3" transform="translate(530,368)"/>
<path d="M0 0 C0 3.3 0 6.6 0 10 C-0.99 10 -1.98 10 -3 10 C-4.33333333 8 -5.66666667 6 -7 4 C-9.44353875 1.77206761 -11.06809487 1.05074731 -14.3671875 0.87109375 C-18.88135104 1.09211363 -21.36000259 1.50666866 -25 4.3125 C-29.6850147 10.6079885 -29.90567255 16.25557551 -29 24 C-27.41378504 28.23427631 -25.1003103 31.0219464 -21.75 34 C-16.80359649 35.79869219 -12.05079709 35.8658921 -7.1875 33.8125 C-4.72569545 31.77271909 -2.88141668 29.57823767 -1 27 C-0.01 27.33 0.98 27.66 2 28 C0.60862591 31.53293606 -0.88726476 34.83628676 -3 38 C-6.0625 39.125 -6.0625 39.125 -10 39 C-10.93585938 39.05542969 -11.87171875 39.11085938 -12.8359375 39.16796875 C-20.54601355 39.52725441 -25.94273355 38.65878492 -31.75 33.421875 C-35.79620194 29.10333255 -37.95058059 24.90413318 -38.02734375 18.83984375 C-37.61279016 12.64279908 -35.95955891 6.89346455 -31.42578125 2.4609375 C-21.43771146 -5.21528692 -11.30881427 -3.1196729 0 0 Z " fill="#FFF9E4" transform="translate(511,370)"/>
<path d="M0 0 C0.33 1.65 0.66 3.3 1 5 C-1.95144098 7.49027832 -4.90413364 9.5358925 -8.25 11.4375 C-10.87556402 13.06355954 -11.84238805 13.6847761 -13.25 16.5 C-12.88828328 20.11716722 -11.50517938 21.34858895 -9 24 C-6.12428447 26.03439648 -3.10935742 27.7980147 -0.0625 29.5625 C13.28684945 37.39541126 13.28684945 37.39541126 15.5 42.375 C16.12928269 46.93729947 15.71163942 48.28118022 13 52 C8.03902818 56.50906143 2.1207268 61.18182363 -4 64 C-4.66 63.67 -5.32 63.34 -6 63 C-5.10796875 62.32453125 -4.2159375 61.6490625 -3.296875 60.953125 C-2.11446376 60.05224025 -0.93217876 59.1511898 0.25 58.25 C0.83652344 57.8065625 1.42304688 57.363125 2.02734375 56.90625 C8.06979684 52.83963679 8.06979684 52.83963679 11.390625 46.859375 C11.32101562 45.81523437 11.32101562 45.81523437 11.25 44.75 C11.12625 42.89375 11.12625 42.89375 11 41 C8.44722473 39.71699896 5.88566845 38.45289041 3.3203125 37.1953125 C1.9218203 36.50531918 0.5233844 35.81521175 -0.875 35.125 C-1.56980469 34.78597656 -2.26460938 34.44695312 -2.98046875 34.09765625 C-9.70455758 30.7672695 -15.79641319 27.42901512 -20 21 C-20.97058676 16.78005756 -20.35913329 13.78072454 -18.5625 9.875 C-13.63589114 4.34758518 -7.5240531 -0.1980014 0 0 Z " fill="#FFEFD9" transform="translate(504,145)"/>
<path d="M0 0 C11.88 0 23.76 0 36 0 C37.26237731 2.52475462 37.09856404 4.31200466 37.0625 7.125 C37.05347656 8.03507812 37.04445313 8.94515625 37.03515625 9.8828125 C37.02355469 10.58148438 37.01195312 11.28015625 37 12 C36.34 12 35.68 12 35 12 C34.34 10.02 33.68 8.04 33 6 C29.04 5.67 25.08 5.34 21 5 C21.33 15.56 21.66 26.12 22 37 C23.98 37.66 25.96 38.32 28 39 C28 39.66 28 40.32 28 41 C21.4 41 14.8 41 8 41 C8 40.34 8 39.68 8 39 C9.98 38.34 11.96 37.68 14 37 C14.33 26.44 14.66 15.88 15 5 C9.06 5.495 9.06 5.495 3 6 C2.34 7.98 1.68 9.96 1 12 C0.34 12 -0.32 12 -1 12 C-1.02712066 10.56260487 -1.04645067 9.12506137 -1.0625 7.6875 C-1.07410156 6.88699219 -1.08570313 6.08648437 -1.09765625 5.26171875 C-1 3 -1 3 0 0 Z " fill="#FFF9E5" transform="translate(253,367)"/>
<path d="M0 0 C1.67542976 0.28604898 3.34385343 0.61781233 5 1 C6.34293773 4.80010326 7.38244873 8.56920771 8.24145508 12.50585938 C11.21682294 25.8078871 16.43321793 39.35820671 28.21484375 47.1171875 C38.10423157 52.96707941 48.49366374 56.09173331 59.90625 57.47265625 C60.9271875 57.64667969 61.948125 57.82070313 63 58 C63.33 58.66 63.66 59.32 64 60 C49.19588761 58.81191917 35.84083424 57.04517574 23 49 C21.989375 48.443125 20.97875 47.88625 19.9375 47.3125 C9.037325 38.73151117 1.51621463 23.55062373 -1 10 C-1.24828105 6.91288277 -1.19727256 4.10704289 -1 1 C-0.67 0.67 -0.34 0.34 0 0 Z " fill="#FFEFD9" transform="translate(451,247)"/>
<path d="M0 0 C6.6 0 13.2 0 20 0 C20 0.66 20 1.32 20 2 C17.69 2.33 15.38 2.66 13 3 C13 14.22 13 25.44 13 37 C25.34373314 36.73255423 25.34373314 36.73255423 33 30 C32.43232249 33.97374258 31.51473344 36.83649354 29 40 C25.99731445 40.56762695 25.99731445 40.56762695 22.36328125 40.48828125 C21.06455078 40.47216797 19.76582031 40.45605469 18.42773438 40.43945312 C17.05597301 40.39767609 15.68422823 40.35535135 14.3125 40.3125 C12.92907618 40.28741745 11.54560923 40.26460418 10.16210938 40.24414062 C6.77365236 40.18510827 3.38736615 40.10280082 0 40 C0 39.34 0 38.68 0 38 C2.475 37.505 2.475 37.505 5 37 C5 26.11 5 15.22 5 4 C2.525 3.01 2.525 3.01 0 2 C0 1.34 0 0.68 0 0 Z " fill="#FFF9E5" transform="translate(555,368)"/>
<path d="M0 0 C6.27 0 12.54 0 19 0 C19.33 0.66 19.66 1.32 20 2 C17.69 2.66 15.38 3.32 13 4 C13 14.56 13 25.12 13 36 C24.08750441 37.24549161 24.08750441 37.24549161 28.0625 33.5625 C28.701875 32.716875 29.34125 31.87125 30 31 C30.99 30.67 31.98 30.34 33 30 C31.8741386 33.53842155 30.66905241 36.66189518 29 40 C19.1 40 9.2 40 -1 40 C-1 39.34 -1 38.68 -1 38 C-0.195625 37.87625 0.60875 37.7525 1.4375 37.625 C2.283125 37.41875 3.12875 37.2125 4 37 C5.46098845 34.0780231 5.11134901 31.50106525 5.09765625 28.2421875 C5.09553383 27.24761032 5.09553383 27.24761032 5.09336853 26.23294067 C5.08776754 24.11358137 5.075215 21.99432741 5.0625 19.875 C5.05748512 18.43880361 5.05292219 17.00260556 5.04882812 15.56640625 C5.03779782 12.04423655 5.02053259 8.52212855 5 5 C3.02 4.01 1.04 3.02 -1 2 C-0.67 1.34 -0.34 0.68 0 0 Z " fill="#FFF9E5" transform="translate(390,368)"/>
<path d="M0 0 C4.95 0 9.9 0 15 0 C15 0.66 15 1.32 15 2 C13.68 2.33 12.36 2.66 11 3 C11 14.55 11 26.1 11 38 C12.32 38 13.64 38 15 38 C15 38.66 15 39.32 15 40 C10.05 40 5.1 40 0 40 C0 39.34 0 38.68 0 38 C1.485 37.505 1.485 37.505 3 37 C3.07405887 32.33694962 3.12855763 27.67424016 3.16479492 23.01074219 C3.17989814 21.42376749 3.20038223 19.83683463 3.22631836 18.25 C3.26263595 15.97124927 3.27971023 13.69304942 3.29296875 11.4140625 C3.30845261 10.70255035 3.32393646 9.99103821 3.33988953 9.25796509 C3.37546508 7.04245596 3.37546508 7.04245596 3 4 C2.01 3.34 1.02 2.68 0 2 C0 1.34 0 0.68 0 0 Z " fill="#FFF9E5" transform="translate(689,368)"/>
<path d="M0 0 C3.00950808 2.16032408 4.25882952 3.80836262 5.73046875 7.2421875 C6.82365335 15.12222647 5.95847938 22.43837429 1.73046875 29.2421875 C-1.6368595 33.51869437 -5.4309173 37.3918526 -9.26953125 41.2421875 C-9.87667969 41.85191406 -10.48382812 42.46164062 -11.109375 43.08984375 C-11.68365234 43.66025391 -11.68365234 43.66025391 -12.26953125 44.2421875 C-12.92953125 43.9121875 -13.58953125 43.5821875 -14.26953125 43.2421875 C-13.76164063 42.78070313 -13.25375 42.31921875 -12.73046875 41.84375 C-5.22103684 34.72807107 1.2342671 26.31306098 1.98046875 15.6796875 C1.66816779 11.38554934 1.06449032 8.62561728 -1.95703125 5.4921875 C-5.16579418 3.75772105 -7.62053627 3.36588224 -11.26953125 3.2421875 C-15.46427433 4.54400432 -17.84480744 5.81746369 -20.95703125 8.9296875 C-22.10171875 10.074375 -22.10171875 10.074375 -23.26953125 11.2421875 C-24.58953125 11.2421875 -25.90953125 11.2421875 -27.26953125 11.2421875 C-27.70703125 8.6171875 -27.70703125 8.6171875 -27.26953125 5.2421875 C-20.20272361 -3.26193695 -9.64819081 -5.58478111 0 0 Z " fill="#FEEAD2" transform="translate(579.26953125,217.7578125)"/>
<path d="M0 0 C2.62169359 0.60599803 3.69776158 1.21575468 5.5078125 3.17578125 C7.56570446 6.87998678 8.24407394 8.41672634 7.3828125 12.55078125 C4.99403107 16.85058783 4.99403107 16.85058783 2.3828125 18.55078125 C-1.11143341 19.3584676 -4.11614004 19.30264554 -7.6171875 18.55078125 C-10.7374185 16.55383341 -12.20275138 15.26378389 -13.0859375 11.61328125 C-13.37720583 7.76853933 -12.81337345 5.86467878 -10.7421875 2.55078125 C-6.9473288 0.12207168 -4.44614665 -0.23226139 0 0 Z M-7.4296875 4.67578125 C-9.92058698 7.36338088 -9.92058698 7.36338088 -9.6796875 10.67578125 C-8.80425417 13.56723774 -8.80425417 13.56723774 -6.9296875 15.48828125 C-3.68924003 16.97713549 -1.96812908 16.69152732 1.3828125 15.55078125 C3.55301542 13.46156369 3.55301542 13.46156369 4.3828125 10.55078125 C3.89518989 7.33761602 3.89518989 7.33761602 2.3828125 4.55078125 C-1.68752036 1.83722601 -3.49712108 1.70450884 -7.4296875 4.67578125 Z " fill="#FFF9E3" transform="translate(501.6171875,432.44921875)"/>
<path d="M0 0 C11.99650452 -0.60588407 11.99650452 -0.60588407 16.3125 2 C18.49250742 5.87556875 19.02314315 8.66257262 18 13 C16.3125 16 16.3125 16 13 18 C8.57767847 18.41225031 4.46053566 18.22527958 0 18 C0 12.06 0 6.12 0 0 Z M3 2 C3 6.62 3 11.24 3 16 C9.53862899 16.56473828 9.53862899 16.56473828 12.9375 14.375 C15.22795745 12.12761767 15.22795745 12.12761767 15.625 9 C15.22795745 5.87238233 15.22795745 5.87238233 12.9375 3.625 C9.53862899 1.43526172 9.53862899 1.43526172 3 2 Z " fill="#FFF9E4" transform="translate(613,433)"/>
<path d="M0 0 C11.480858 -0.37035026 11.480858 -0.37035026 13.8671875 1.33203125 C15.62797211 3.9246348 15.30608017 5.93919826 15 9 C14.62875 9.86625 14.2575 10.7325 13.875 11.625 C12.70825344 13.99213253 12.70825344 13.99213253 13.875 16.3125 C14.24625 16.869375 14.6175 17.42625 15 18 C13.68 18 12.36 18 11 18 C10.2884375 17.0409375 10.2884375 17.0409375 9.5625 16.0625 C8.13457038 13.74524791 8.13457038 13.74524791 5.3125 13.25 C4.549375 13.1675 3.78625 13.085 3 13 C3 14.65 3 16.3 3 18 C2.01 18 1.02 18 0 18 C0 12.06 0 6.12 0 0 Z M3 2 C3 4.64 3 7.28 3 10 C6.41656024 10.16677282 6.41656024 10.16677282 10 10 C10.66 9.34 11.32 8.68 12 8 C11.83492354 5.42459787 11.83492354 5.42459787 11 3 C8.29120665 1.64560332 5.99066732 1.93498549 3 2 Z " fill="#FFF9E4" transform="translate(366,433)"/>
<path d="M0 0 C1.32 0 2.64 0 4 0 C5.17112946 2.62309099 6.33705964 5.24828142 7.5 7.875 C7.83386719 8.62136719 8.16773438 9.36773437 8.51171875 10.13671875 C8.82753906 10.85214844 9.14335938 11.56757813 9.46875 12.3046875 C9.90864258 13.2944458 9.90864258 13.2944458 10.35742188 14.30419922 C11 16 11 16 11 18 C9.0625 17.625 9.0625 17.625 7 17 C6.67 16.34 6.34 15.68 6 15 C3.87423218 14.53348793 3.87423218 14.53348793 1.4375 14.375 C0.61121094 14.30023438 -0.21507812 14.22546875 -1.06640625 14.1484375 C-1.70449219 14.09945313 -2.34257813 14.05046875 -3 14 C-3.33 15.32 -3.66 16.64 -4 18 C-5.32 17.67 -6.64 17.34 -8 17 C-6.85700498 14.35290709 -5.71075628 11.70730948 -4.5625 9.0625 C-4.23701172 8.30775391 -3.91152344 7.55300781 -3.57617188 6.77539062 C-1.11328125 1.11328125 -1.11328125 1.11328125 0 0 Z M1 4 C0.34 6.31 -0.32 8.62 -1 11 C0.98 11 2.96 11 5 11 C4.01 8.69 3.02 6.38 2 4 C1.67 4 1.34 4 1 4 Z " fill="#FFF9E5" transform="translate(644,433)"/>
<path d="M0 0 C4.62 0 9.24 0 14 0 C14 0.66 14 1.32 14 2 C10.7 2 7.4 2 4 2 C4 3.98 4 5.96 4 8 C6.97 8 9.94 8 13 8 C13 8.66 13 9.32 13 10 C10.03 10 7.06 10 4 10 C4 11.98 4 13.96 4 16 C7.3 16 10.6 16 14 16 C14 16.66 14 17.32 14 18 C9.38 18 4.76 18 0 18 C0 12.06 0 6.12 0 0 Z " fill="#FFF9E0" transform="translate(558,433)"/>
<path d="M0 0 C0.99 0 1.98 0 3 0 C3 2.64 3 5.28 3 8 C6.3 8 9.6 8 13 8 C13 5.36 13 2.72 13 0 C13.99 0 14.98 0 16 0 C16 5.94 16 11.88 16 18 C15.01 18 14.02 18 13 18 C13 15.36 13 12.72 13 10 C9.7 10 6.4 10 3 10 C3 12.64 3 15.28 3 18 C2.01 18 1.02 18 0 18 C0 12.06 0 6.12 0 0 Z " fill="#FFF8E3" transform="translate(431,433)"/>
<path d="M0 0 C1.33998047 0.06960938 1.33998047 0.06960938 2.70703125 0.140625 C3.60808594 0.17671875 4.50914062 0.2128125 5.4375 0.25 C6.46810547 0.31960938 6.46810547 0.31960938 7.51953125 0.390625 C7.84953125 1.050625 8.17953125 1.710625 8.51953125 2.390625 C7.85953125 3.050625 7.19953125 3.710625 6.51953125 4.390625 C2.89453125 4.015625 2.89453125 4.015625 -0.48046875 3.390625 C-0.48046875 4.380625 -0.48046875 5.370625 -0.48046875 6.390625 C3.97453125 8.370625 3.97453125 8.370625 8.51953125 10.390625 C8.64453125 13.265625 8.64453125 13.265625 8.51953125 16.390625 C6.51953125 18.390625 6.51953125 18.390625 4.20703125 18.62109375 C3.32015625 18.60691406 2.43328125 18.59273438 1.51953125 18.578125 C0.18921875 18.56845703 0.18921875 18.56845703 -1.16796875 18.55859375 C-3.48046875 18.390625 -3.48046875 18.390625 -5.48046875 17.390625 C-5.48046875 16.400625 -5.48046875 15.410625 -5.48046875 14.390625 C-1.85046875 14.720625 1.77953125 15.050625 5.51953125 15.390625 C4.86987539 12.26858532 4.86987539 12.26858532 2.48828125 11.36328125 C0.84329152 10.75682143 -0.80254415 10.15265124 -2.44921875 9.55078125 C-4.48046875 8.390625 -4.48046875 8.390625 -5.44921875 6.51171875 C-5.48046875 4.390625 -5.48046875 4.390625 -4.3671875 2.15625 C-2.48046875 0.390625 -2.48046875 0.390625 0 0 Z " fill="#FFF9E4" transform="translate(414.48046875,432.609375)"/>
<path d="M0 0 C4.62 0 9.24 0 14 0 C14 0.66 14 1.32 14 2 C10.7 2 7.4 2 4 2 C4 3.98 4 5.96 4 8 C6.97 8 9.94 8 13 8 C13 8.99 13 9.98 13 11 C10.03 11 7.06 11 4 11 C4 13.31 4 15.62 4 18 C2.68 18 1.36 18 0 18 C0 12.06 0 6.12 0 0 Z " fill="#FFD4C1" transform="translate(516,433)"/>
<path d="M0 0 C4.62 0 9.24 0 14 0 C14 0.66 14 1.32 14 2 C10.37 2 6.74 2 3 2 C3 3.98 3 5.96 3 8 C5.97 8 8.94 8 12 8 C12 8.66 12 9.32 12 10 C9.03 10 6.06 10 3 10 C3 11.98 3 13.96 3 16 C6.63 16 10.26 16 14 16 C14 16.66 14 17.32 14 18 C9.38 18 4.76 18 0 18 C0 12.06 0 6.12 0 0 Z " fill="#FFF8E3" transform="translate(580,433)"/>
<path d="M0 0 C0.90105469 0.01804687 1.80210937 0.03609375 2.73046875 0.0546875 C3.41753906 0.07789063 4.10460937 0.10109375 4.8125 0.125 C5.4725 1.445 6.1325 2.765 6.8125 4.125 C6.20921875 4.00640625 5.6059375 3.8878125 4.984375 3.765625 C-0.126644 2.85846656 -0.126644 2.85846656 -4.8125 4.6875 C-6.45277435 7.11238915 -6.45277435 7.11238915 -6.125 10.25 C-5.42055313 13.41674932 -5.42055313 13.41674932 -2.1875 15.125 C0.10964187 15.15139829 0.10964187 15.15139829 2.5 14.75 C3.30824219 14.63914062 4.11648438 14.52828125 4.94921875 14.4140625 C5.56410156 14.31867188 6.17898438 14.22328125 6.8125 14.125 C6.1525 15.445 5.4925 16.765 4.8125 18.125 C-4.32916085 18.75305304 -4.32916085 18.75305304 -7.75 16.25 C-10.18611697 12.64878362 -10.44933591 10.48893187 -10.1875 6.125 C-8.30730919 0.91831777 -5.28402964 -0.13724752 0 0 Z " fill="#FFF8E5" transform="translate(476.1875,432.875)"/>
<path d="M0 0 C4.29 0 8.58 0 13 0 C13 0.66 13 1.32 13 2 C9.7 2 6.4 2 3 2 C3 3.98 3 5.96 3 8 C5.97 8 8.94 8 12 8 C12 8.66 12 9.32 12 10 C9.03 10 6.06 10 3 10 C3 11.98 3 13.96 3 16 C6.63 16 10.26 16 14 16 C14 16.66 14 17.32 14 18 C9.38 18 4.76 18 0 18 C0 12.06 0 6.12 0 0 Z " fill="#FFF8E3" transform="translate(389,433)"/>
<path d="M0 0 C4.62 0 9.24 0 14 0 C14 0.66 14 1.32 14 2 C10.37 2 6.74 2 3 2 C3 3.98 3 5.96 3 8 C5.97 8 8.94 8 12 8 C12 8.99 12 9.98 12 11 C9.03 11 6.06 11 3 11 C3 13.31 3 15.62 3 18 C2.01 18 1.02 18 0 18 C0 12.06 0 6.12 0 0 Z " fill="#FFF8E3" transform="translate(345,433)"/>
<path d="M0 0 C4.29 0 8.58 0 13 0 C13 0.66 13 1.32 13 2 C9.7 2 6.4 2 3 2 C3 3.98 3 5.96 3 8 C5.97 8 8.94 8 12 8 C12 8.99 12 9.98 12 11 C9.03 11 6.06 11 3 11 C3 13.31 3 15.62 3 18 C2.01 18 1.02 18 0 18 C0 12.06 0 6.12 0 0 Z " fill="#FFFAE7" transform="translate(538,433)"/>
<path d="M0 0 C1.32 0 2.64 0 4 0 C5.32 2.31 6.64 4.62 8 7 C10.77000825 3.67913229 10.77000825 3.67913229 13 0 C14.32 0.33 15.64 0.66 17 1 C16.57847656 1.72445313 16.15695312 2.44890625 15.72265625 3.1953125 C15.17480469 4.16210938 14.62695312 5.12890625 14.0625 6.125 C13.51722656 7.07632812 12.97195313 8.02765625 12.41015625 9.0078125 C10.97051473 12.06256432 10.39132616 14.66134387 10 18 C9.01 18 8.02 18 7 18 C6.6596875 16.329375 6.6596875 16.329375 6.3125 14.625 C5.01939103 9.35817661 2.55263105 4.7545189 0 0 Z " fill="#FFF8E3" transform="translate(691,433)"/>
<path d="M0 0 C0.99 0 1.98 0 3 0 C3 5.28 3 10.56 3 16 C6.3 16 9.6 16 13 16 C13 16.66 13 17.32 13 18 C8.71 18 4.42 18 0 18 C0 12.06 0 6.12 0 0 Z " fill="#FFF9E4" transform="translate(674,433)"/>
<path d="M0 0 C0.99 0 1.98 0 3 0 C3 5.94 3 11.88 3 18 C2.01 18 1.02 18 0 18 C0 12.06 0 6.12 0 0 Z " fill="#FFFBE3" transform="translate(662,433)"/>
<path d="M0 0 C0.99 0.33 1.98 0.66 3 1 C-0.63 4.63 -4.26 8.26 -8 12 C-8.66 11.67 -9.32 11.34 -10 11 C-9.44570313 10.45730469 -8.89140625 9.91460937 -8.3203125 9.35546875 C-7.23363281 8.28232422 -7.23363281 8.28232422 -6.125 7.1875 C-5.40570312 6.47980469 -4.68640625 5.77210938 -3.9453125 5.04296875 C-1.84641063 2.95600806 -1.84641063 2.95600806 0 0 Z " fill="#FDDBC1" transform="translate(575,250)"/>
</svg>
